<svg width="34" height="34" viewBox="0 0 34 34" fill="none" xmlns="http://www.w3.org/2000/svg">
<path fillRule="evenodd" clipRule="evenodd" d="M11.6856 0.105254C11.0913 0.294717 10.5615 0.756362 10.2968 1.31597C10.0748 1.78472 10.0725 1.82323 10.0803 4.82773L10.0882 7.8655L11.3504 9.0105C12.0446 9.6403 12.6391 10.1555 12.6716 10.1555C12.7041 10.1555 12.7307 8.51754 12.7307 6.51551C12.7307 2.92814 12.7336 2.87346 12.9295 2.73849C13.2275 2.53313 20.9616 2.63118 21.2088 2.84345C21.3595 2.97291 21.3762 3.30146 21.3988 6.59375L21.4237 10.2022L22.7347 8.99555L24.0458 7.78885L24.0173 4.74267C23.9901 1.82594 23.9801 1.68059 23.7834 1.3226C23.5215 0.845908 23.0367 0.38828 22.6112 0.216015C22.1007 0.00935331 12.2984 -0.090005 11.6856 0.105254ZM29.3091 4.18914C29.2046 4.2512 27.9638 5.37714 26.5519 6.69133C22.3442 10.6073 17.6711 14.8678 17.45 14.9893C17.0727 15.1966 16.7446 15.1297 16.3211 14.7589C16.101 14.5662 13.4052 12.1056 10.3307 9.29091C5.00155 4.41244 4.72375 4.17344 4.38326 4.17344C3.94766 4.17344 3.64107 4.42665 3.56289 4.85072C3.5321 5.01803 3.51947 8.4796 3.53476 12.5432C3.56098 19.4803 3.57315 19.9471 3.73409 20.1888C4.12931 20.7821 4.98084 20.9856 5.57548 20.6288C6.13449 20.2934 6.12375 20.38 6.17534 15.8061C6.21885 11.9523 6.23738 11.5739 6.39423 11.3385C6.75079 10.8036 7.46884 10.5731 7.95346 10.838C8.06917 10.9014 9.83589 12.4877 11.8795 14.3632C14.2964 16.5815 15.7503 17.8485 16.0393 17.9883C16.4069 18.1663 16.5979 18.1971 17.1484 18.1669C17.5142 18.147 17.9479 18.0619 18.1123 17.978C18.2766 17.8941 20.1135 16.2634 22.1943 14.3544C24.275 12.4452 26.0779 10.8457 26.2006 10.7998C26.7412 10.5976 27.3416 10.8068 27.6503 11.3051C27.8267 11.5897 27.8359 11.8025 27.8363 15.6702C27.8369 20.2032 27.8318 20.1651 28.4919 20.5989C29.0725 20.9804 29.9508 20.8029 30.3042 20.2325C30.4924 19.9288 30.496 19.7813 30.4963 12.2456C30.4967 5.07187 30.4857 4.55489 30.3304 4.36785C30.1319 4.12894 29.5746 4.03146 29.3091 4.18914ZM31.3517 15.7456V20.9875L31.1405 21.1329C30.9579 21.2588 30.4121 21.2784 27.0998 21.2784C22.8785 21.2784 22.87 21.2795 22.2466 21.8674C22.0723 22.0318 21.8371 22.3346 21.7241 22.5403C21.5247 22.9033 21.5174 23.0339 21.4712 27.0536C21.4305 30.5967 21.4032 31.206 21.2812 31.2818C21.1972 31.3339 19.4368 31.3709 16.9938 31.3718C13.2547 31.3731 12.8363 31.358 12.7185 31.2188C12.614 31.0949 12.5788 30.239 12.5407 26.8958C12.4941 22.8113 12.489 22.7206 12.2853 22.3985C11.9976 21.9434 11.7104 21.6961 11.2106 21.4732C10.803 21.2914 10.6029 21.2824 6.92977 21.2805C3.75489 21.2788 3.04406 21.2551 2.89205 21.1458C2.71401 21.0177 2.70679 20.838 2.68152 15.9115L2.6554 10.8098L2.254 10.8104C1.55115 10.8112 1.12277 10.9848 0.656676 11.4574C0.355225 11.763 0.186685 12.0325 0.110396 12.3307C0.0341071 12.6287 0 14.1591 0 17.2836C0 22.4506 0.00237469 22.4707 0.704083 23.181C1.39458 23.8801 1.50992 23.8956 5.99806 23.8956H9.87142L9.89973 28.0784C9.92795 32.2468 9.9288 32.2626 10.1502 32.7048C10.4252 33.2543 10.9958 33.7467 11.5234 33.8897C11.8105 33.9675 13.4248 33.9904 17.251 33.9709L22.5788 33.9436L23.0438 33.6608C23.3318 33.4855 23.6182 33.2037 23.7963 32.9204L24.0838 32.463L24.1103 28.183L24.1368 23.9031L28.2431 23.876C32.2525 23.8495 32.3584 23.8441 32.7358 23.6453C33.246 23.3766 33.785 22.7787 33.9163 22.3358C33.9897 22.0882 34.0132 20.4349 33.9932 16.9167L33.9644 11.8539L33.6752 11.4487C33.2881 10.9065 32.7258 10.6123 31.9612 10.5519L31.3517 10.5038V15.7456ZM3.51576 28.7794C3.51605 31.1721 3.55443 32.8636 3.61305 33.0713C3.6673 33.2636 3.85626 33.5407 4.04333 33.7023C4.62191 34.202 5.58536 34.0531 5.98913 33.4016C6.16574 33.1168 6.17467 32.9037 6.17496 28.9663L6.17534 24.8303H4.84527H3.51519L3.51576 28.7794ZM27.9315 29.0297C27.9777 33.1097 27.9847 33.2366 28.1782 33.4929C28.4404 33.84 28.7492 33.9876 29.2141 33.9876C29.7058 33.9876 30.0114 33.8299 30.2801 33.4377L30.4967 33.1214V28.9759V24.8303L29.1904 24.8302H27.884L27.9315 29.0297Z" fill="white"/>
</svg>
